<svg xmlns="http://www.w3.org/2000/svg" viewBox="0 0 800 600"><style>.container{fill:#4A5568}.product{fill:#CBD5E0}.label{fill:#4299E1}.text{font-family:Arial;fill:#2D3748}</style><rect width="800" height="600" fill="#F7FAFC"/><g transform="translate(100,50)"><g class="container"><rect x="50" y="100" width="150" height="200" rx="10"/><rect x="250" y="100" width="150" height="200" rx="10"/><rect x="450" y="100" width="150" height="200" rx="10"/></g><g class="product"><rect x="70" y="130" width="110" height="40" rx="5"/><rect x="70" y="180" width="110" height="40" rx="5"/><rect x="70" y="230" width="110" height="40" rx="5"/><rect x="270" y="130" width="110" height="40" rx="5"/><rect x="270" y="180" width="110" height="40" rx="5"/><rect x="270" y="230" width="110" height="40" rx="5"/><rect x="470" y="130" width="110" height="40" rx="5"/><rect x="470" y="180" width="110" height="40" rx="5"/><rect x="470" y="230" width="110" height="40" rx="5"/></g><g class="label"><circle cx="125" cy="150" r="8"/><circle cx="325" cy="150" r="8"/><circle cx="525" cy="150" r="8"/></g><text class="text" x="300" y="350" text-anchor="middle" font-size="24">Product Organization</text></g></svg>