<svg xmlns="http://www.w3.org/2000/svg" viewBox="0 0 800 600"><style>.warehouse{fill:#4A5568}.shelf{fill:#2D3748}.box{fill:#CBD5E0}.accent{fill:#4299E1}.text{font-family:Arial;fill:#2D3748}</style><rect width="800" height="600" fill="#F7FAFC"/><g transform="translate(100,50)"><path class="warehouse" d="M50,400 h500 v-300 l-250,-100 l-250,100 v300 z"/><g class="shelf"><rect x="100" y="150" width="400" height="10"/><rect x="100" y="250" width="400" height="10"/><rect x="100" y="350" width="400" height="10"/></g><g class="box"><rect x="120" y="160" width="60" height="60"/><rect x="200" y="160" width="60" height="60"/><rect x="280" y="160" width="60" height="60"/><rect x="360" y="260" width="60" height="60"/><rect x="200" y="260" width="60" height="60"/></g><g class="accent"><circle cx="150" cy="190" r="10"/><circle cx="230" cy="190" r="10"/><circle cx="310" cy="190" r="10"/><circle cx="390" cy="290" r="10"/><circle cx="230" cy="290" r="10"/></g><text class="text" x="250" y="450" text-anchor="middle" font-size="24">Warehouse Management</text></g></svg>